<?xml version="1.0" encoding="iso-8859-1"?>
<!-- Generator: Adobe Illustrator 18.1.1, SVG Export Plug-In . SVG Version: 6.00 Build 0)  -->
<svg version="1.1" id="Capa_1" xmlns="http://www.w3.org/2000/svg" xmlns:xlink="http://www.w3.org/1999/xlink" x="0px" y="0px"
	 viewBox="0 0 17.412 17.412" style="enable-background:new 0 0 17.412 17.412;" xml:space="preserve">
<g>
	<g>
		<path style="fill:#030104;" d="M12.253,8.654c-0.692,0-0.994,0.782-0.994,1.761c-0.015,1.023,0.331,1.762,0.994,1.762
			c0.647,0,0.963-0.663,0.963-1.762C13.216,9.422,12.96,8.654,12.253,8.654z"/>
		<path style="fill:#030104;" d="M15.962,0.001H1.452C0.65,0.001,0,0.651,0,1.452v14.509c0,0.801,0.65,1.451,1.452,1.451h14.51
			c0.801,0,1.45-0.65,1.45-1.451V1.453C17.412,0.651,16.763,0.001,15.962,0.001z M2.496,6.41c0-1.747,1.069-3.071,2.74-3.071
			c1.687,0,2.635,1.234,2.635,2.906c0,2.047-1.295,3.117-2.71,3.117C3.671,9.361,2.496,8.247,2.496,6.41z M5.281,13.456
			l5.616-10.117h1.235L6.5,13.456H5.281z M12.207,13.427c-1.476,0-2.649-1.114-2.664-2.952c0-1.746,1.068-3.07,2.739-3.07
			c1.687,0,2.636,1.234,2.636,2.905C14.918,12.357,13.623,13.427,12.207,13.427z"/>
		<path style="fill:#030104;" d="M5.191,4.588c-0.677,0-0.994,0.782-0.994,1.762c0,1.023,0.346,1.761,1.009,1.761
			c0.648,0,0.963-0.662,0.963-1.761C6.169,5.356,5.899,4.588,5.191,4.588z"/>
	</g>
</g>
<g>
</g>
<g>
</g>
<g>
</g>
<g>
</g>
<g>
</g>
<g>
</g>
<g>
</g>
<g>
</g>
<g>
</g>
<g>
</g>
<g>
</g>
<g>
</g>
<g>
</g>
<g>
</g>
<g>
</g>
</svg>
