<?xml version="1.0" encoding="iso-8859-1"?>
<!-- Generator: Adobe Illustrator 16.0.0, SVG Export Plug-In . SVG Version: 6.00 Build 0)  -->
<!DOCTYPE svg PUBLIC "-//W3C//DTD SVG 1.1//EN" "http://www.w3.org/Graphics/SVG/1.1/DTD/svg11.dtd">
<svg version="1.1" id="Capa_1" xmlns="http://www.w3.org/2000/svg" xmlns:xlink="http://www.w3.org/1999/xlink" x="0px" y="0px"
	 width="313.822px" height="313.822px" viewBox="0 0 313.822 313.822" style="enable-background:new 0 0 313.822 313.822;"
	 xml:space="preserve">
<g>
	<g>
		<path d="M173.911,165.86c-69.334,0-126.949-22.347-148.955-54.431C9.227,122.416,0,135.763,0,150.158
			c0,37.521,62.64,67.938,139.911,67.938c77.271,0,139.911-30.418,139.911-67.938c0-1.691-0.132-3.368-0.382-5.028
			C251.603,158.086,214.798,165.86,173.911,165.86z"/>
		<path d="M281.636,188.251c-25.849,27.251-78.987,45.549-141.725,45.549c-38.995,0-74.281-7.068-101.613-18.963
			C35.494,220.199,34,225.815,34,231.603c0,37.521,62.641,67.939,139.911,67.939c77.271,0,139.911-30.418,139.911-67.939
			C313.822,215.123,301.735,200.015,281.636,188.251z"/>
		<path d="M173.911,14.28C96.64,14.28,34,44.698,34,82.219s62.64,67.939,139.911,67.939c77.271,0,139.911-30.417,139.911-67.938
			S251.183,14.28,173.911,14.28z M184.107,108.378c-0.454,0.043-1.426,0.156-1.379,0.722v7.794c0,0.663-1.116,1.206-2.483,1.206
			h-14.021c-1.367,0-2.484-0.543-2.484-1.206v-6.526c0-0.664-1.104-1.292-2.453-1.396c0,0-18.75-1.448-27.86-3.248
			c-1.008-0.199-2.478-0.506-1.881-1.562l4.445-8.889c0.34-0.643,1.642-0.951,2.895-0.687c0,0,17.295,3.658,29.892,3.658
			c11.046,0,18.604-2.07,18.604-5.834c0-3.576-6.201-5.834-20.541-8.187c-20.736-3.388-34.884-8.093-34.884-17.221
			c0-8.076,11.426-14.451,31.224-16.595c0.504-0.055,1.412-0.196,1.527-0.874v-7.015c0-0.664,1.118-1.207,2.484-1.207h14.023
			c1.365,0,2.483,0.543,2.483,1.207v5.868c0,0.663,1.104,1.287,2.457,1.387c0,0,16.926,1.248,24.307,2.645
			c0.49,0.093,1.409,0.357,0.911,1.084l-4.578,8.661c-0.34,0.643-1.629,0.938-2.863,0.653c0,0-11.707-2.686-25.659-2.686
			c-12.597,0-16.666,2.635-16.666,5.271c0,3.104,6.784,5.082,23.255,8.094c23.061,3.952,32.363,9.127,32.363,17.597
			C217.226,99.294,205.52,106.321,184.107,108.378z"/>
	</g>
</g>
<g>
</g>
<g>
</g>
<g>
</g>
<g>
</g>
<g>
</g>
<g>
</g>
<g>
</g>
<g>
</g>
<g>
</g>
<g>
</g>
<g>
</g>
<g>
</g>
<g>
</g>
<g>
</g>
<g>
</g>
</svg>
